<?xml version="1.0" encoding="utf-8"?>
<!-- Generator: Adobe Illustrator 26.0.0, SVG Export Plug-In . SVG Version: 6.00 Build 0)  -->
<svg version="1.1" xmlns="http://www.w3.org/2000/svg" xmlns:xlink="http://www.w3.org/1999/xlink" x="0px" y="0px"
	 viewBox="0 0 100 100" style="enable-background:new 0 0 100 100;" xml:space="preserve">
<style type="text/css">
	.st0{display:none;}
	.st1{fill:none;stroke:#000000;stroke-width:5;stroke-linecap:round;stroke-linejoin:round;stroke-miterlimit:10;}
	.st2{fill:#DF4949;}
	.st3{fill:#FFB94F;}
	.st4{fill:#3E3E3E;}
	.st5{fill:#FFFFFF;}
</style>
<g id="Capa_2" class="st0">
</g>
<g id="Capa_1">
	<g>
		<path class="st5" d="M74.78,52.87c2.49-0.59,6.14-2.75,9.55-5.64l-2.47-5.7l-0.27-0.62l0.48-0.48c6.36-6.41,6.89-20.91,6.93-22.68
			c-0.35,0.13-1,0.41-2.17,1.02c-1.8,0.93-3.59,1.9-5.31,2.87c-3.48,1.96-8.18,4.8-10.78,7.15l-0.36,0.33l-0.48-0.09l-2.49-0.44
			l-0.48-0.09l-0.23-0.43c-1.63-3.08-5.08-7.36-7.69-10.4c-1.28-1.49-2.63-3.01-4.01-4.52c-0.83-0.9-1.4-1.51-1.67-1.77
			c-0.39,1.13-2.35,7.02-2.78,12.67l-0.11,1.44l-1.31-0.61c-2.15-0.99-4.54-1.52-6.91-1.52c-8.4,0-15.43,6.29-16.35,14.64
			l-0.31,2.86l-1.53-2.43c-2.13-3.4-2.08-7.77,0.13-11.13c0.65-0.99,1.48-1.86,2.53-2.66c0.64-0.49,2.59-1.98,2.59-3.51
			c0-1.88-1.53-3.41-3.41-3.41c-0.37,0-1.02,0.07-1.34,0.16c-0.79,0.22-1.58,0.57-2.36,1.04l-0.03,0.02l-0.05,0.03l-0.02,0.01
			l-0.05,0.03c-1.74,1.09-3.34,2.73-4.75,4.87c-4.87,7.41-2.81,17.4,4.59,22.27c1.81,1.19,3.79,1.99,5.89,2.38h0.5l0.3,0.44
			c1.66,2.45,4.41,3.91,7.37,3.91h25.72h0.11l0.1,0.02c0.93,0.2,3.43,0.66,6.56,0.66C70.65,53.57,72.8,53.34,74.78,52.87z"/>
		<g>
			<g>
				<path class="st3" d="M18.58,67.4c-0.19-0.52-0.5-0.91-0.94-1.17c-0.43-0.26-0.9-0.39-1.41-0.39c-0.36,0-0.72,0.06-1.07,0.19
					c-0.35,0.13-0.66,0.32-0.94,0.58c-0.28,0.26-0.5,0.58-0.68,0.97c-0.17,0.39-0.26,0.84-0.26,1.36c0,0.52,0.09,0.98,0.26,1.37
					c0.17,0.4,0.4,0.73,0.68,1c0.28,0.27,0.59,0.47,0.95,0.6c0.36,0.13,0.71,0.19,1.08,0.18c0.51-0.02,0.98-0.17,1.42-0.46
					c0.44-0.29,0.76-0.73,0.95-1.32h3.15c-0.13,0.76-0.36,1.42-0.71,1.99c-0.35,0.57-0.77,1.04-1.27,1.42
					c-0.5,0.38-1.05,0.67-1.67,0.88c-0.62,0.21-1.25,0.32-1.9,0.33c-0.76,0.03-1.51-0.08-2.26-0.32c-0.75-0.25-1.42-0.62-2-1.11
					c-0.59-0.5-1.06-1.13-1.42-1.88C10.18,70.86,10,69.96,10,68.94c0-1.01,0.18-1.9,0.55-2.65c0.36-0.76,0.84-1.39,1.42-1.9
					c0.58-0.51,1.25-0.88,2-1.13c0.75-0.24,1.51-0.36,2.26-0.34c0.63,0.02,1.25,0.12,1.85,0.31c0.6,0.19,1.15,0.47,1.65,0.84
					c0.5,0.37,0.92,0.84,1.28,1.4c0.36,0.56,0.6,1.2,0.72,1.93H18.58z"/>
				<path class="st3" d="M27.37,74.72h-3.32V57.37h3.32v7.44c0.46-0.71,1.01-1.19,1.67-1.43c0.66-0.24,1.35-0.35,2.07-0.32
					c1.28,0.06,2.24,0.42,2.87,1.08c0.63,0.66,1.03,1.53,1.21,2.62c0.03,0.27,0.06,0.54,0.07,0.81c0.02,0.27,0.02,0.54,0.02,0.83
					v3.06c0,0.51,0.07,0.84,0.23,1c0.15,0.16,0.5,0.22,1.05,0.19v1.99c-0.7,0.14-1.32,0.21-1.88,0.19
					c-0.56-0.02-1.04-0.13-1.45-0.36c-0.4-0.22-0.72-0.56-0.94-1.02c-0.22-0.46-0.33-1.07-0.33-1.83v-2.18c0-0.38,0-0.73-0.01-1.05
					c-0.01-0.32-0.03-0.62-0.06-0.89c-0.09-0.6-0.29-1.06-0.58-1.37c-0.29-0.32-0.79-0.47-1.5-0.47c-0.32,0-0.62,0.06-0.92,0.17
					c-0.3,0.11-0.56,0.27-0.78,0.49c-0.22,0.21-0.4,0.48-0.53,0.79c-0.13,0.32-0.2,0.67-0.2,1.07V74.72z"/>
				<path class="st3" d="M48.73,73.99c-0.66,0.36-1.33,0.6-1.99,0.72c-0.66,0.12-1.36,0.19-2.09,0.23c-1,0.03-1.9-0.07-2.73-0.3
					s-1.53-0.59-2.11-1.09c-0.58-0.5-1.04-1.13-1.36-1.9c-0.32-0.77-0.49-1.67-0.49-2.71c0-0.96,0.16-1.82,0.49-2.56
					c0.32-0.74,0.75-1.36,1.29-1.86c0.54-0.5,1.15-0.88,1.85-1.14c0.7-0.26,1.42-0.4,2.18-0.41c0.65-0.02,1.29,0.04,1.93,0.17
					c0.64,0.13,1.21,0.35,1.72,0.66c0.51,0.32,0.91,0.73,1.22,1.23c0.31,0.51,0.45,1.13,0.44,1.87c-0.03,0.59-0.17,1.09-0.43,1.53
					c-0.25,0.43-0.58,0.79-0.98,1.08c-0.4,0.28-0.85,0.5-1.35,0.65c-0.5,0.15-1.01,0.23-1.53,0.25c-0.66,0.03-1.32-0.01-1.96-0.13
					s-1.21-0.32-1.72-0.6c0.02,0.49,0.12,0.9,0.32,1.24c0.2,0.34,0.46,0.62,0.79,0.83c0.33,0.21,0.72,0.36,1.17,0.45
					c0.45,0.09,0.94,0.12,1.46,0.11c0.66-0.02,1.34-0.11,2.03-0.28c0.69-0.17,1.26-0.37,1.72-0.59L48.73,73.99z M41.31,67.56
					c0.11,0.08,0.27,0.16,0.49,0.24c0.21,0.08,0.45,0.15,0.71,0.2c0.26,0.06,0.53,0.1,0.81,0.13c0.28,0.03,0.55,0.04,0.82,0.02
					c0.47-0.02,0.88-0.12,1.22-0.32c0.34-0.2,0.52-0.51,0.53-0.94c0-0.25-0.07-0.47-0.2-0.65c-0.13-0.18-0.3-0.32-0.5-0.43
					c-0.2-0.1-0.42-0.18-0.66-0.23c-0.25-0.05-0.48-0.07-0.7-0.07c-0.58,0.03-1.11,0.2-1.56,0.51
					C41.8,66.34,41.48,66.85,41.31,67.56z"/>
				<path class="st3" d="M61.62,73.99c-0.66,0.36-1.33,0.6-1.99,0.72c-0.66,0.12-1.36,0.19-2.09,0.23c-1,0.03-1.9-0.07-2.73-0.3
					c-0.82-0.23-1.53-0.59-2.11-1.09c-0.58-0.5-1.04-1.13-1.36-1.9c-0.32-0.77-0.49-1.67-0.49-2.71c0-0.96,0.16-1.82,0.49-2.56
					c0.32-0.74,0.75-1.36,1.29-1.86c0.54-0.5,1.15-0.88,1.85-1.14c0.7-0.26,1.42-0.4,2.18-0.41c0.65-0.02,1.29,0.04,1.93,0.17
					c0.64,0.13,1.21,0.35,1.72,0.66c0.51,0.32,0.91,0.73,1.22,1.23c0.31,0.51,0.45,1.13,0.44,1.87c-0.03,0.59-0.17,1.09-0.43,1.53
					c-0.25,0.43-0.58,0.79-0.98,1.08c-0.4,0.28-0.85,0.5-1.35,0.65c-0.5,0.15-1.01,0.23-1.53,0.25c-0.66,0.03-1.32-0.01-1.96-0.13
					c-0.64-0.12-1.21-0.32-1.72-0.6c0.02,0.49,0.12,0.9,0.32,1.24c0.2,0.34,0.46,0.62,0.79,0.83c0.33,0.21,0.72,0.36,1.17,0.45
					c0.45,0.09,0.94,0.12,1.46,0.11c0.66-0.02,1.34-0.11,2.03-0.28c0.69-0.17,1.26-0.37,1.72-0.59L61.62,73.99z M54.2,67.56
					c0.11,0.08,0.27,0.16,0.49,0.24c0.21,0.08,0.45,0.15,0.71,0.2c0.26,0.06,0.53,0.1,0.81,0.13c0.28,0.03,0.55,0.04,0.82,0.02
					c0.47-0.02,0.88-0.12,1.22-0.32c0.34-0.2,0.52-0.51,0.53-0.94c0-0.25-0.07-0.47-0.2-0.65c-0.13-0.18-0.3-0.32-0.5-0.43
					c-0.2-0.1-0.42-0.18-0.66-0.23c-0.25-0.05-0.48-0.07-0.7-0.07c-0.58,0.03-1.11,0.2-1.56,0.51
					C54.69,66.34,54.38,66.85,54.2,67.56z"/>
				<path class="st3" d="M64.8,80.53V67.02c0-0.27,0-0.51-0.01-0.74c-0.01-0.22-0.04-0.41-0.11-0.57c-0.06-0.16-0.17-0.27-0.32-0.34
					c-0.15-0.07-0.37-0.1-0.65-0.08V63.2c0.38-0.08,0.79-0.13,1.23-0.17c0.44-0.03,0.85,0,1.23,0.1c0.38,0.09,0.69,0.27,0.95,0.53
					c0.25,0.26,0.38,0.64,0.38,1.15v0.28c0.31-0.7,0.81-1.24,1.49-1.62c0.68-0.39,1.39-0.58,2.13-0.58
					c0.88,0.02,1.65,0.19,2.29,0.52c0.65,0.33,1.18,0.77,1.61,1.32c0.43,0.54,0.74,1.18,0.95,1.91c0.2,0.73,0.31,1.49,0.31,2.3
					c-0.02,0.81-0.13,1.57-0.34,2.29c-0.21,0.72-0.52,1.35-0.93,1.88c-0.41,0.54-0.93,0.97-1.55,1.29
					c-0.62,0.32-1.34,0.49-2.16,0.51c-0.71,0.02-1.37-0.11-2-0.39c-0.62-0.28-1.09-0.71-1.41-1.32v7.32H64.8z M73.02,68.94
					c0-0.88-0.22-1.63-0.66-2.23c-0.44-0.6-1.09-0.88-1.94-0.85c-0.81,0-1.41,0.29-1.8,0.87c-0.39,0.58-0.59,1.32-0.59,2.22
					c0,0.44,0.05,0.86,0.15,1.24c0.1,0.39,0.25,0.73,0.45,1.02c0.2,0.29,0.45,0.53,0.75,0.7c0.3,0.17,0.66,0.26,1.07,0.26
					c0.88,0,1.54-0.3,1.96-0.91C72.81,70.64,73.02,69.87,73.02,68.94z"/>
				<path class="st3" d="M79.54,77.16c0.44,0.24,0.93,0.44,1.47,0.62c0.54,0.17,1.08,0.3,1.62,0.37c0.55,0.07,1.07,0.07,1.59,0.01
					c0.51-0.06,0.97-0.22,1.36-0.46c0.39-0.25,0.71-0.59,0.96-1.04c0.25-0.45,0.37-1.03,0.37-1.74v-1.94
					c-0.25,0.66-0.65,1.15-1.2,1.45c-0.55,0.3-1.17,0.45-1.88,0.45c-0.87,0.02-1.61-0.11-2.23-0.37c-0.62-0.26-1.12-0.64-1.5-1.13
					c-0.39-0.49-0.67-1.09-0.85-1.79c-0.18-0.7-0.27-1.49-0.27-2.36v-2.54c0-0.51-0.08-0.87-0.23-1.09
					c-0.15-0.22-0.51-0.32-1.08-0.28V63.3c0.6-0.14,1.18-0.22,1.73-0.23c0.55-0.01,1.04,0.08,1.47,0.27
					c0.43,0.19,0.77,0.5,1.02,0.92c0.25,0.43,0.38,1.01,0.38,1.75v3.15c0,0.87,0.16,1.58,0.49,2.13c0.32,0.55,0.9,0.83,1.72,0.83
					c0.57,0,1-0.15,1.3-0.45c0.3-0.3,0.52-0.67,0.66-1.11c0.14-0.44,0.23-0.91,0.25-1.41c0.02-0.5,0.04-0.94,0.04-1.32v-4.57h3.25
					v11.64c0,1.55-0.33,2.78-0.99,3.7c-0.66,0.92-1.51,1.56-2.54,1.93c-1.03,0.37-2.17,0.47-3.42,0.31
					c-1.25-0.17-2.45-0.56-3.62-1.2L79.54,77.16z"/>
			</g>
			<g>
				<g>
					<path class="st3" d="M33.25,88.07c-0.31-0.12-0.6-0.3-0.86-0.52c-0.04-0.03-0.06-0.07-0.06-0.12c0-0.04,0.01-0.07,0.04-0.11
						l0.34-0.43c0.04-0.05,0.08-0.07,0.12-0.07c0.03,0,0.07,0.02,0.11,0.04c0.18,0.13,0.39,0.24,0.62,0.33
						c0.23,0.09,0.46,0.13,0.68,0.13c0.21,0,0.38-0.05,0.51-0.15c0.13-0.1,0.2-0.23,0.2-0.4c0-0.11-0.03-0.2-0.1-0.28
						c-0.07-0.08-0.17-0.15-0.31-0.21s-0.33-0.13-0.58-0.21c-0.42-0.13-0.75-0.31-1.01-0.54c-0.26-0.23-0.39-0.54-0.39-0.94
						c0-0.25,0.06-0.47,0.19-0.69c0.12-0.21,0.31-0.39,0.56-0.52c0.25-0.13,0.56-0.2,0.93-0.2c0.26,0,0.52,0.05,0.8,0.15
						c0.27,0.1,0.51,0.24,0.71,0.43c0.04,0.03,0.06,0.07,0.06,0.11s-0.02,0.08-0.05,0.11l-0.43,0.44c-0.04,0.04-0.08,0.06-0.12,0.06
						c-0.03,0-0.07-0.01-0.11-0.04c-0.12-0.09-0.26-0.17-0.42-0.22c-0.16-0.06-0.32-0.09-0.47-0.09c-0.21,0-0.37,0.05-0.48,0.14
						c-0.11,0.09-0.17,0.21-0.17,0.35c0,0.09,0.03,0.18,0.09,0.25c0.06,0.07,0.16,0.14,0.3,0.2c0.14,0.06,0.32,0.13,0.56,0.21
						c0.3,0.09,0.56,0.2,0.77,0.32c0.21,0.12,0.38,0.27,0.5,0.46c0.12,0.19,0.19,0.42,0.19,0.7c0,0.26-0.07,0.51-0.2,0.74
						s-0.33,0.41-0.58,0.55s-0.55,0.21-0.89,0.21C33.9,88.26,33.56,88.2,33.25,88.07z"/>
					<path class="st3" d="M39.35,88.14h-0.71c-0.11,0-0.16-0.05-0.16-0.16v-3.74H37.1c-0.11,0-0.16-0.05-0.16-0.16v-0.64
						c0-0.11,0.05-0.16,0.16-0.16h3.79c0.11,0,0.16,0.05,0.16,0.16v0.64c0,0.11-0.05,0.16-0.16,0.16h-1.38v3.74
						C39.51,88.09,39.46,88.14,39.35,88.14z"/>
					<path class="st3" d="M43.41,87.99c-0.33-0.17-0.59-0.41-0.76-0.72c-0.18-0.31-0.26-0.66-0.26-1.06v-2.77
						c0-0.11,0.05-0.16,0.16-0.16h0.71c0.11,0,0.16,0.05,0.16,0.16v2.62c0,0.24,0.05,0.46,0.14,0.64c0.09,0.18,0.22,0.33,0.4,0.43
						c0.18,0.1,0.39,0.15,0.65,0.15c0.26,0,0.47-0.05,0.65-0.15c0.18-0.1,0.31-0.24,0.4-0.43c0.09-0.18,0.14-0.4,0.14-0.64v-2.62
						c0-0.11,0.05-0.16,0.16-0.16h0.71c0.11,0,0.16,0.05,0.16,0.16v2.77c0,0.4-0.09,0.75-0.26,1.06c-0.18,0.31-0.43,0.55-0.77,0.72
						c-0.34,0.17-0.74,0.26-1.2,0.26C44.14,88.24,43.75,88.16,43.41,87.99z"/>
					<path class="st3" d="M48.61,87.98v-4.54c0-0.11,0.05-0.16,0.16-0.16h1.77c0.5,0,0.96,0.11,1.37,0.32
						c0.41,0.21,0.74,0.5,0.98,0.88c0.24,0.37,0.36,0.78,0.36,1.24c0,0.46-0.12,0.87-0.36,1.24c-0.24,0.37-0.56,0.66-0.97,0.87
						c-0.41,0.21-0.87,0.32-1.37,0.32h-1.78C48.66,88.14,48.61,88.09,48.61,87.98z M50.58,87.15c0.31,0,0.59-0.06,0.83-0.18
						c0.25-0.12,0.44-0.29,0.57-0.51c0.14-0.22,0.21-0.47,0.21-0.75c0-0.28-0.07-0.52-0.21-0.74c-0.14-0.22-0.33-0.39-0.58-0.51
						c-0.25-0.12-0.53-0.18-0.83-0.18h-0.93v2.88H50.58z"/>
					<path class="st3" d="M55.69,88.14h-0.71c-0.11,0-0.16-0.05-0.16-0.16v-4.54c0-0.11,0.05-0.16,0.16-0.16h0.71
						c0.11,0,0.16,0.05,0.16,0.16v4.54C55.85,88.09,55.8,88.14,55.69,88.14z"/>
					<path class="st3" d="M58.75,87.92c-0.39-0.23-0.69-0.53-0.92-0.92c-0.23-0.39-0.34-0.81-0.34-1.27c0-0.46,0.11-0.89,0.34-1.28
						c0.23-0.39,0.54-0.7,0.92-0.92c0.39-0.23,0.81-0.34,1.27-0.34c0.46,0,0.88,0.11,1.27,0.34c0.39,0.23,0.7,0.53,0.92,0.92
						c0.23,0.39,0.34,0.81,0.34,1.28c0,0.46-0.11,0.88-0.34,1.27c-0.23,0.39-0.54,0.69-0.93,0.92c-0.39,0.22-0.81,0.34-1.27,0.34
						C59.55,88.26,59.13,88.15,58.75,87.92z M58.73,86.51c0.13,0.23,0.32,0.42,0.55,0.55c0.23,0.13,0.48,0.2,0.75,0.2
						c0.27,0,0.51-0.07,0.74-0.2c0.23-0.13,0.41-0.32,0.55-0.55c0.13-0.23,0.2-0.49,0.2-0.78c0-0.29-0.07-0.55-0.2-0.78
						c-0.13-0.24-0.32-0.42-0.55-0.56c-0.23-0.13-0.48-0.2-0.74-0.2c-0.27,0-0.52,0.07-0.75,0.2c-0.23,0.13-0.41,0.32-0.55,0.56
						c-0.13,0.24-0.2,0.5-0.2,0.78C58.53,86.02,58.59,86.28,58.73,86.51z"/>
					<path class="st3" d="M64.85,88.07c-0.31-0.12-0.6-0.3-0.86-0.52c-0.04-0.03-0.06-0.07-0.06-0.12c0-0.04,0.02-0.07,0.04-0.11
						l0.34-0.43c0.04-0.05,0.08-0.07,0.12-0.07c0.03,0,0.07,0.02,0.11,0.04c0.18,0.13,0.39,0.24,0.62,0.33
						c0.23,0.09,0.46,0.13,0.68,0.13c0.21,0,0.38-0.05,0.51-0.15c0.13-0.1,0.2-0.23,0.2-0.4c0-0.11-0.03-0.2-0.1-0.28
						c-0.07-0.08-0.17-0.15-0.31-0.21s-0.33-0.13-0.58-0.21c-0.42-0.13-0.75-0.31-1.01-0.54c-0.26-0.23-0.39-0.54-0.39-0.94
						c0-0.25,0.06-0.47,0.19-0.69c0.12-0.21,0.31-0.39,0.56-0.52c0.25-0.13,0.56-0.2,0.93-0.2c0.26,0,0.52,0.05,0.8,0.15
						c0.27,0.1,0.51,0.24,0.71,0.43c0.04,0.03,0.06,0.07,0.06,0.11s-0.02,0.08-0.05,0.11l-0.43,0.44c-0.04,0.04-0.08,0.06-0.12,0.06
						c-0.03,0-0.07-0.01-0.11-0.04c-0.12-0.09-0.26-0.17-0.42-0.22c-0.16-0.06-0.32-0.09-0.48-0.09c-0.21,0-0.37,0.05-0.48,0.14
						c-0.11,0.09-0.17,0.21-0.17,0.35c0,0.09,0.03,0.18,0.09,0.25c0.06,0.07,0.16,0.14,0.29,0.2c0.14,0.06,0.32,0.13,0.56,0.21
						c0.3,0.09,0.56,0.2,0.77,0.32c0.21,0.12,0.38,0.27,0.5,0.46c0.12,0.19,0.19,0.42,0.19,0.7c0,0.26-0.07,0.51-0.2,0.74
						c-0.13,0.23-0.33,0.41-0.58,0.55c-0.25,0.14-0.55,0.21-0.89,0.21C65.5,88.26,65.16,88.2,64.85,88.07z"/>
				</g>
				<g>
					<path class="st3" d="M26.56,82.94V89c0,0.37,0.3,0.67,0.67,0.67c0.37,0,0.67-0.3,0.67-0.67v-6.06c0-0.37-0.3-0.67-0.67-0.67
						C26.87,82.27,26.56,82.57,26.56,82.94z"/>
				</g>
				<g>
					<path class="st3" d="M74.12,89v-6.06c0-0.37-0.3-0.67-0.67-0.67c-0.37,0-0.67,0.3-0.67,0.67V89c0,0.37,0.3,0.67,0.67,0.67
						C73.82,89.68,74.12,89.38,74.12,89z"/>
				</g>
			</g>
		</g>
		<g>
			<g id="XMLID_00000141450187259813236330000004944429276634875326_">
				<g>
					<path class="st5" d="M28.43,21.13c0,0.35-0.18,0.87-0.88,1.62c-0.21,0.23-0.59,0.17-0.71-0.12l-0.69-1.61
						c-0.1-0.24-0.3-0.42-0.54-0.51c-0.25-0.08-0.51-0.06-0.74,0.06l-1.14,0.62c-0.29,0.16-0.65-0.04-0.66-0.37l-0.03-0.61
						c-0.03-0.51,0.27-0.98,0.74-1.18c0.32-0.14,0.64-0.25,0.98-0.35c0.22-0.06,0.79-0.12,1.11-0.12
						C27.28,18.56,28.43,19.71,28.43,21.13z"/>
					<path class="st5" d="M80.64,36.58l7.3-14.72c-0.45,4.89-1.82,12.81-6.01,17.48L80.64,36.58z"/>
					<path class="st5" d="M52.85,15.75l1.83,16.33l-2.12,2.12C50.21,28.4,51.6,20.52,52.85,15.75z"/>
					<path class="st5" d="M82.55,45.25l0.76,1.74c-2.95,2.43-5.69,4.3-8.82,5.09c-4.63,1.18-8.82,0.81-12.57,0
						c-0.04-0.01-0.08-0.01-0.12-0.02c-0.77-0.13-8.9-1.69-13.22-11.13l0.8-0.84l14.19-6.04l1.15,3.42c0.1,0.31,0.37,0.54,0.69,0.61
						c0.32,0.07,0.65-0.05,0.87-0.3l1.67-1.92l0.9,3.41c0.07,0.27,0.26,0.49,0.51,0.6c0.25,0.11,0.54,0.11,0.79-0.02l3.13-1.58
						L82.55,45.25z"/>
					<path class="st5" d="M56.47,52.05H36.55c-3.34,0-6.44-1.8-8.05-4.73c-0.03-0.06-0.06-0.13-0.1-0.19
						c0.71-2.21,2.86-8.98,3.47-11.14c0.17-0.58,1.86-0.64,3.35-0.7c2.47-0.1,5.54-0.22,7.68-2.2c2.74-2.54,2.2-6.42,1.54-8.72
						c1.74,0.25,3.43,0.79,4.98,1.6c-0.07,3.31,0.36,6.7,1.71,9.61c0,0-2.96,3.1-2.97,3.1l-1.36,1.42
						c-0.25,0.26-0.33,0.65-0.18,0.99C49.22,47.12,53.24,50.35,56.47,52.05z"/>
					<path class="st3" d="M89.49,16.66c0.35,0.18,0.54,0.55,0.5,0.92c0,0.03-0.12,16.4-7.23,23.55l2.5,5.75
						c0.16,0.37,0.06,0.8-0.24,1.06c-3.35,2.85-7.19,5.23-10.02,5.9c-5.8,1.37-11.4,0.47-13.38,0.05H35.91
						c-3.28,0-6.35-1.63-8.2-4.35c-0.04,0-0.08,0-0.12-0.01c-2.25-0.42-4.36-1.27-6.28-2.53c-7.87-5.18-10.05-15.79-4.88-23.66
						c1.5-2.27,3.21-4.02,5.05-5.17c0.04-0.03,0.08-0.06,0.12-0.08c0.01-0.01,0.03-0.02,0.05-0.03c0.84-0.51,1.71-0.89,2.6-1.15
						c0.43-0.12,1.17-0.19,1.61-0.19c2.43,0,4.41,1.98,4.41,4.41c0,1.81-1.7,3.32-2.99,4.31c-0.97,0.73-1.72,1.52-2.3,2.41
						c-2.04,3.1-2.01,7.03-0.11,10.05c0.96-8.72,8.37-15.53,17.34-15.53c2.54,0,5.05,0.55,7.33,1.61
						c0.48-6.34,2.88-13.09,2.92-13.16c0.16-0.3,0.48-0.5,0.83-0.49c0.46,0,0.46,0,2.44,2.15c0.93,1.01,2.39,2.62,4.04,4.55
						c2.68,3.13,6.15,7.44,7.81,10.59l2.49,0.44c2.64-2.39,7.37-5.26,10.96-7.28c2.21-1.25,4.13-2.26,5.35-2.89
						C87.43,17.33,89.14,16.48,89.49,16.66z M87.94,21.86l-7.3,14.72l1.29,2.76C86.12,34.67,87.49,26.75,87.94,21.86z M83.31,46.99
						l-0.76-1.74l-9.26-6.98l-3.13,1.58c-0.25,0.12-0.54,0.13-0.79,0.02c-0.25-0.11-0.44-0.33-0.51-0.6l-0.9-3.41l-1.67,1.92
						c-0.22,0.25-0.55,0.36-0.87,0.3c-0.32-0.06-0.59-0.29-0.69-0.61l-1.15-3.42l-14.19,6.04l-0.8,0.84
						c4.32,9.44,12.46,11,13.22,11.13c0.04,0,0.08,0.01,0.12,0.02c3.75,0.81,7.93,1.18,12.57,0C77.61,51.29,80.36,49.42,83.31,46.99
						z M36.55,52.05h19.91c-3.22-1.7-7.24-4.93-9.82-10.96c-0.14-0.33-0.07-0.72,0.18-0.99l1.36-1.42c0,0,2.97-3.1,2.97-3.1
						c-1.35-2.91-1.77-6.29-1.71-9.61c-1.55-0.81-3.24-1.35-4.98-1.6c0.66,2.3,1.19,6.18-1.54,8.72c-2.14,1.98-5.21,2.1-7.68,2.2
						c-1.5,0.06-3.19,0.12-3.35,0.7c-0.61,2.16-2.77,8.93-3.47,11.14c0.03,0.06,0.06,0.13,0.1,0.19
						C30.11,50.25,33.21,52.05,36.55,52.05z M54.68,32.08l-1.83-16.33c-1.25,4.77-2.64,12.65-0.29,18.45L54.68,32.08z M27.55,22.75
						c0.7-0.75,0.88-1.27,0.88-1.62c0-1.42-1.15-2.57-2.57-2.57c-0.32,0-0.89,0.07-1.11,0.12c-0.33,0.1-0.66,0.21-0.98,0.35
						c-0.47,0.2-0.76,0.67-0.74,1.18l0.03,0.61c0.02,0.33,0.37,0.53,0.66,0.37l1.14-0.62c0.23-0.12,0.5-0.15,0.74-0.06
						c0.25,0.08,0.44,0.27,0.54,0.51l0.69,1.61C26.96,22.92,27.34,22.98,27.55,22.75z"/>
				</g>
			</g>
			<g>
				<path class="st3" d="M77.52,44.8l-8.24-1.45c-0.5-0.09-0.97,0.25-1.06,0.75c-0.09,0.5,0.25,0.98,0.74,1.07l8.24,1.45
					c0.06,0.01,0.11,0.01,0.16,0.01c0.44,0,0.83-0.32,0.9-0.76C78.35,45.36,78.02,44.88,77.52,44.8z"/>
			</g>
			<g>
				<path class="st3" d="M63.05,42.25l-8.24-1.45c-0.5-0.09-0.98,0.24-1.07,0.74c-0.09,0.5,0.25,0.98,0.75,1.07l8.24,1.45
					c0.06,0.01,0.11,0.01,0.16,0.01c0.44,0,0.82-0.31,0.9-0.76C63.89,42.81,63.55,42.33,63.05,42.25z"/>
			</g>
		</g>
	</g>
</g>
</svg>
