<?xml version="1.0" encoding="utf-8"?>
<!-- Generator: Adobe Illustrator 26.0.0, SVG Export Plug-In . SVG Version: 6.00 Build 0)  -->
<svg version="1.1" xmlns="http://www.w3.org/2000/svg" xmlns:xlink="http://www.w3.org/1999/xlink" x="0px" y="0px"
	 viewBox="0 0 250 70" style="enable-background:new 0 0 250 70;" xml:space="preserve">
<style type="text/css">
	.st0{display:none;}
	.st1{fill:none;stroke:#000000;stroke-width:5;stroke-linecap:round;stroke-linejoin:round;stroke-miterlimit:10;}
	.st2{fill:#DF4949;}
	.st3{fill:#FFB94F;}
	.st4{fill:#3E3E3E;}
	.st5{fill:#FFFFFF;}
</style>
<g id="Capa_2" class="st0">
</g>
<g id="Capa_1">
	<g>
		<g>
			<g>
				<path class="st5" d="M137.13,23.49c-0.24-0.65-0.62-1.13-1.16-1.46c-0.54-0.32-1.12-0.49-1.75-0.49c-0.45,0-0.89,0.08-1.33,0.24
					c-0.43,0.16-0.82,0.4-1.16,0.72c-0.34,0.32-0.62,0.73-0.84,1.21c-0.22,0.48-0.32,1.05-0.32,1.69s0.11,1.22,0.32,1.71
					c0.22,0.49,0.5,0.9,0.84,1.24c0.34,0.33,0.74,0.58,1.18,0.75c0.44,0.17,0.89,0.24,1.34,0.22c0.63-0.02,1.22-0.21,1.77-0.57
					c0.55-0.36,0.94-0.91,1.18-1.63h3.92c-0.16,0.94-0.45,1.77-0.88,2.47c-0.43,0.71-0.96,1.3-1.58,1.77
					c-0.62,0.47-1.31,0.84-2.08,1.09c-0.77,0.26-1.55,0.39-2.36,0.41c-0.94,0.04-1.88-0.09-2.81-0.4c-0.93-0.3-1.76-0.77-2.49-1.38
					c-0.73-0.62-1.32-1.4-1.77-2.34c-0.45-0.94-0.68-2.05-0.68-3.33c0-1.26,0.23-2.36,0.68-3.3c0.45-0.94,1.04-1.73,1.77-2.36
					c0.73-0.63,1.56-1.1,2.49-1.4c0.93-0.3,1.87-0.45,2.81-0.43c0.79,0.02,1.55,0.15,2.3,0.38c0.75,0.24,1.43,0.58,2.05,1.05
					c0.62,0.46,1.15,1.04,1.59,1.74c0.44,0.7,0.74,1.5,0.9,2.4H137.13z"/>
				<path class="st5" d="M148.06,32.6h-4.12V11.03h4.12v9.25c0.57-0.88,1.26-1.48,2.08-1.78c0.81-0.3,1.67-0.44,2.58-0.4
					c1.59,0.08,2.78,0.53,3.56,1.34s1.29,1.9,1.5,3.26c0.04,0.33,0.07,0.67,0.09,1c0.02,0.33,0.03,0.68,0.03,1.03v3.8
					c0,0.63,0.09,1.04,0.28,1.24c0.19,0.2,0.62,0.28,1.31,0.24v2.47c-0.86,0.18-1.65,0.26-2.34,0.24c-0.7-0.02-1.3-0.17-1.8-0.44
					c-0.5-0.27-0.89-0.7-1.16-1.27c-0.28-0.57-0.41-1.33-0.41-2.27v-2.71c0-0.47,0-0.91-0.01-1.31c-0.01-0.4-0.03-0.77-0.07-1.1
					c-0.12-0.75-0.36-1.32-0.72-1.71c-0.36-0.39-0.99-0.59-1.87-0.59c-0.39,0-0.78,0.07-1.15,0.21c-0.37,0.14-0.7,0.34-0.97,0.6
					c-0.28,0.26-0.5,0.59-0.66,0.99c-0.17,0.39-0.25,0.84-0.25,1.33V32.6z"/>
				<path class="st5" d="M174.61,31.68c-0.82,0.45-1.65,0.75-2.47,0.9c-0.82,0.15-1.69,0.24-2.59,0.28
					c-1.24,0.04-2.37-0.08-3.39-0.37c-1.02-0.28-1.9-0.74-2.62-1.36c-0.73-0.62-1.29-1.4-1.69-2.36c-0.4-0.95-0.6-2.08-0.6-3.37
					c0-1.2,0.2-2.26,0.6-3.18c0.4-0.92,0.94-1.69,1.61-2.31c0.67-0.62,1.43-1.09,2.3-1.41c0.86-0.32,1.77-0.5,2.71-0.52
					c0.81-0.02,1.61,0.05,2.4,0.21c0.8,0.16,1.51,0.43,2.14,0.82c0.63,0.39,1.13,0.9,1.52,1.53c0.38,0.63,0.56,1.4,0.54,2.33
					c-0.04,0.73-0.22,1.36-0.53,1.9c-0.31,0.54-0.72,0.99-1.22,1.34c-0.5,0.35-1.06,0.62-1.68,0.81c-0.62,0.19-1.25,0.29-1.9,0.31
					c-0.83,0.04-1.64-0.01-2.43-0.16c-0.8-0.15-1.51-0.4-2.14-0.75c0.02,0.61,0.15,1.12,0.4,1.55c0.25,0.42,0.57,0.77,0.99,1.03
					c0.41,0.26,0.9,0.45,1.46,0.56c0.56,0.11,1.16,0.15,1.81,0.13c0.82-0.02,1.66-0.14,2.52-0.35s1.57-0.46,2.14-0.74L174.61,31.68z
					 M165.39,23.7c0.14,0.1,0.34,0.2,0.6,0.29c0.27,0.1,0.56,0.18,0.88,0.25c0.32,0.07,0.66,0.12,1,0.16
					c0.34,0.04,0.68,0.05,1.02,0.03c0.59-0.02,1.1-0.15,1.52-0.4c0.42-0.25,0.64-0.63,0.66-1.16c0-0.31-0.08-0.58-0.25-0.81
					c-0.17-0.23-0.37-0.4-0.62-0.53c-0.25-0.13-0.52-0.22-0.82-0.28c-0.3-0.06-0.59-0.09-0.87-0.09c-0.73,0.04-1.37,0.25-1.94,0.63
					C165.99,22.18,165.6,22.82,165.39,23.7z"/>
				<path class="st5" d="M190.63,31.68c-0.82,0.45-1.65,0.75-2.47,0.9c-0.82,0.15-1.69,0.24-2.59,0.28
					c-1.24,0.04-2.37-0.08-3.39-0.37c-1.02-0.28-1.9-0.74-2.62-1.36c-0.73-0.62-1.29-1.4-1.69-2.36c-0.4-0.95-0.6-2.08-0.6-3.37
					c0-1.2,0.2-2.26,0.6-3.18c0.4-0.92,0.94-1.69,1.61-2.31c0.67-0.62,1.43-1.09,2.3-1.41c0.86-0.32,1.77-0.5,2.71-0.52
					c0.81-0.02,1.61,0.05,2.4,0.21c0.8,0.16,1.51,0.43,2.14,0.82c0.63,0.39,1.13,0.9,1.52,1.53c0.38,0.63,0.56,1.4,0.54,2.33
					c-0.04,0.73-0.22,1.36-0.53,1.9c-0.31,0.54-0.72,0.99-1.22,1.34c-0.5,0.35-1.06,0.62-1.68,0.81c-0.62,0.19-1.25,0.29-1.9,0.31
					c-0.83,0.04-1.64-0.01-2.43-0.16c-0.8-0.15-1.51-0.4-2.14-0.75c0.02,0.61,0.15,1.12,0.4,1.55c0.25,0.42,0.57,0.77,0.99,1.03
					c0.41,0.26,0.9,0.45,1.46,0.56c0.56,0.11,1.16,0.15,1.81,0.13c0.82-0.02,1.66-0.14,2.52-0.35s1.57-0.46,2.14-0.74L190.63,31.68z
					 M181.41,23.7c0.14,0.1,0.34,0.2,0.6,0.29c0.27,0.1,0.56,0.18,0.88,0.25c0.32,0.07,0.66,0.12,1,0.16
					c0.34,0.04,0.68,0.05,1.02,0.03c0.59-0.02,1.1-0.15,1.52-0.4c0.42-0.25,0.64-0.63,0.66-1.16c0-0.31-0.08-0.58-0.25-0.81
					c-0.17-0.23-0.37-0.4-0.62-0.53c-0.25-0.13-0.52-0.22-0.82-0.28c-0.3-0.06-0.59-0.09-0.87-0.09c-0.73,0.04-1.37,0.25-1.94,0.63
					C182.02,22.18,181.63,22.82,181.41,23.7z"/>
				<path class="st5" d="M194.58,39.82V23.02c0-0.33,0-0.64-0.01-0.91c-0.01-0.27-0.05-0.51-0.13-0.71c-0.08-0.2-0.21-0.34-0.4-0.43
					c-0.19-0.09-0.46-0.12-0.81-0.1v-2.59c0.47-0.1,0.98-0.17,1.53-0.21c0.55-0.04,1.06,0,1.53,0.12c0.47,0.12,0.86,0.34,1.18,0.66
					c0.31,0.32,0.47,0.8,0.47,1.43v0.35c0.39-0.86,1.01-1.54,1.85-2.02c0.84-0.48,1.72-0.72,2.64-0.72c1.1,0.02,2.05,0.24,2.85,0.65
					c0.8,0.41,1.47,0.96,2,1.64c0.53,0.68,0.92,1.47,1.17,2.37c0.25,0.9,0.38,1.86,0.38,2.86c-0.02,1-0.16,1.95-0.43,2.84
					c-0.26,0.89-0.65,1.67-1.16,2.34c-0.51,0.67-1.15,1.2-1.92,1.61c-0.77,0.4-1.67,0.61-2.69,0.63c-0.88,0.02-1.71-0.14-2.48-0.49
					c-0.77-0.34-1.36-0.89-1.75-1.63v9.1H194.58z M204.8,25.41c0-1.1-0.28-2.02-0.82-2.77c-0.55-0.75-1.35-1.1-2.42-1.06
					c-1,0-1.75,0.36-2.24,1.08c-0.49,0.72-0.74,1.63-0.74,2.75c0,0.55,0.06,1.07,0.19,1.55c0.13,0.48,0.31,0.9,0.56,1.27
					c0.25,0.36,0.55,0.65,0.93,0.87c0.37,0.22,0.81,0.32,1.33,0.32c1.1,0,1.91-0.38,2.43-1.13C204.54,27.53,204.8,26.57,204.8,25.41
					z"/>
				<path class="st5" d="M212.9,35.63c0.55,0.29,1.16,0.55,1.83,0.77c0.67,0.22,1.34,0.37,2.02,0.46c0.68,0.09,1.34,0.09,1.97,0.01
					c0.64-0.08,1.2-0.27,1.69-0.57c0.49-0.3,0.89-0.74,1.19-1.3c0.3-0.56,0.46-1.28,0.46-2.17v-2.42c-0.31,0.82-0.81,1.42-1.49,1.8
					c-0.68,0.37-1.46,0.56-2.34,0.56c-1.08,0.02-2-0.13-2.77-0.46c-0.77-0.32-1.39-0.79-1.87-1.4c-0.48-0.61-0.83-1.35-1.06-2.22
					c-0.23-0.87-0.34-1.85-0.34-2.93v-3.15c0-0.63-0.09-1.08-0.28-1.36c-0.19-0.27-0.63-0.39-1.34-0.35v-2.5
					c0.75-0.18,1.46-0.27,2.15-0.28c0.69-0.01,1.3,0.1,1.83,0.34c0.53,0.24,0.95,0.62,1.27,1.15c0.31,0.53,0.47,1.26,0.47,2.18v3.92
					c0,1.08,0.2,1.96,0.6,2.65c0.4,0.69,1.11,1.03,2.14,1.03c0.71,0,1.25-0.19,1.62-0.56c0.37-0.37,0.65-0.83,0.82-1.38
					c0.18-0.55,0.28-1.13,0.31-1.75c0.03-0.62,0.04-1.16,0.04-1.64v-5.69h4.04v14.47c0,1.92-0.41,3.46-1.23,4.6
					c-0.82,1.14-1.88,1.94-3.16,2.4c-1.28,0.46-2.7,0.59-4.25,0.38c-1.55-0.21-3.05-0.7-4.5-1.49L212.9,35.63z"/>
			</g>
			<g>
				<g>
					<path class="st5" d="M142.24,55.97c-0.58-0.23-1.11-0.55-1.6-0.97c-0.08-0.07-0.12-0.14-0.12-0.22c0-0.06,0.03-0.13,0.08-0.2
						l0.62-0.8c0.07-0.08,0.14-0.13,0.22-0.13c0.05,0,0.12,0.03,0.2,0.08c0.34,0.25,0.73,0.45,1.16,0.6
						c0.43,0.16,0.85,0.24,1.26,0.24c0.39,0,0.71-0.09,0.95-0.28s0.37-0.43,0.37-0.74c0-0.21-0.06-0.38-0.19-0.52
						c-0.12-0.14-0.32-0.27-0.57-0.39s-0.62-0.25-1.08-0.39c-0.77-0.24-1.4-0.57-1.88-1c-0.49-0.43-0.73-1.01-0.73-1.74
						c0-0.46,0.12-0.88,0.35-1.28c0.23-0.4,0.58-0.72,1.05-0.96c0.47-0.24,1.04-0.36,1.72-0.36c0.48,0,0.97,0.09,1.48,0.27
						c0.51,0.18,0.95,0.45,1.32,0.79c0.07,0.07,0.1,0.14,0.1,0.21c0,0.08-0.03,0.15-0.1,0.21l-0.8,0.83
						c-0.07,0.07-0.14,0.11-0.22,0.11c-0.06,0-0.12-0.03-0.2-0.08c-0.23-0.17-0.48-0.31-0.78-0.42c-0.29-0.11-0.59-0.16-0.88-0.16
						c-0.39,0-0.68,0.09-0.89,0.26c-0.21,0.17-0.31,0.39-0.31,0.65c0,0.18,0.06,0.33,0.17,0.46c0.11,0.13,0.3,0.26,0.55,0.38
						c0.25,0.12,0.6,0.25,1.04,0.38c0.56,0.18,1.04,0.37,1.43,0.6c0.39,0.22,0.7,0.51,0.93,0.86c0.23,0.35,0.35,0.78,0.35,1.29
						c0,0.49-0.12,0.94-0.38,1.37c-0.25,0.43-0.61,0.77-1.08,1.02c-0.47,0.26-1.02,0.39-1.66,0.39
						C143.45,56.32,142.82,56.2,142.24,55.97z"/>
					<path class="st5" d="M154.32,56.1H153c-0.2,0-0.3-0.1-0.3-0.3v-6.94h-2.55c-0.2,0-0.3-0.1-0.3-0.3v-1.19c0-0.2,0.1-0.3,0.3-0.3
						h7.03c0.2,0,0.3,0.1,0.3,0.3v1.19c0,0.2-0.1,0.3-0.3,0.3h-2.56v6.94C154.62,56,154.52,56.1,154.32,56.1z"/>
					<path class="st5" d="M162.62,55.81c-0.62-0.32-1.09-0.76-1.42-1.33c-0.33-0.57-0.49-1.22-0.49-1.96v-5.15
						c0-0.2,0.1-0.3,0.3-0.3h1.32c0.2,0,0.3,0.1,0.3,0.3v4.87c0,0.45,0.08,0.85,0.25,1.19c0.17,0.34,0.42,0.6,0.75,0.79
						s0.73,0.28,1.2,0.28c0.48,0,0.88-0.09,1.21-0.28c0.33-0.19,0.58-0.45,0.75-0.79c0.17-0.34,0.26-0.74,0.26-1.19v-4.87
						c0-0.2,0.1-0.3,0.3-0.3h1.32c0.2,0,0.3,0.1,0.3,0.3v5.15c0,0.74-0.16,1.39-0.49,1.96c-0.33,0.57-0.8,1.01-1.42,1.33
						c-0.62,0.32-1.37,0.48-2.23,0.48C163.98,56.29,163.24,56.13,162.62,55.81z"/>
					<path class="st5" d="M173.02,55.8v-8.43c0-0.2,0.1-0.3,0.3-0.3h3.28c0.94,0,1.79,0.2,2.55,0.59c0.77,0.4,1.37,0.94,1.81,1.63
						c0.44,0.69,0.66,1.45,0.66,2.29c0,0.85-0.22,1.61-0.66,2.3c-0.44,0.69-1.04,1.23-1.81,1.63c-0.76,0.4-1.61,0.59-2.54,0.59h-3.3
						C173.12,56.1,173.02,56,173.02,55.8z M176.69,54.26c0.58,0,1.09-0.11,1.55-0.34c0.46-0.23,0.81-0.55,1.07-0.95
						c0.26-0.41,0.38-0.87,0.38-1.39c0-0.51-0.13-0.97-0.39-1.37c-0.26-0.41-0.62-0.72-1.07-0.95c-0.46-0.23-0.97-0.34-1.55-0.34
						h-1.73v5.34H176.69z"/>
					<path class="st5" d="M186.92,56.1h-1.32c-0.2,0-0.3-0.1-0.3-0.3v-8.43c0-0.2,0.1-0.3,0.3-0.3h1.32c0.2,0,0.3,0.1,0.3,0.3v8.43
						C187.22,56,187.12,56.1,186.92,56.1z"/>
					<path class="st5" d="M193.35,55.69c-0.72-0.42-1.29-0.99-1.71-1.7c-0.42-0.72-0.63-1.5-0.63-2.35c0-0.86,0.21-1.65,0.63-2.37
						c0.42-0.72,0.99-1.29,1.72-1.71c0.72-0.42,1.5-0.63,2.35-0.63c0.85,0,1.64,0.21,2.36,0.63c0.72,0.42,1.29,0.99,1.72,1.71
						c0.42,0.72,0.63,1.51,0.63,2.37c0,0.85-0.21,1.64-0.64,2.35s-1,1.29-1.72,1.7c-0.72,0.42-1.51,0.63-2.36,0.63
						C194.85,56.32,194.06,56.11,193.35,55.69z M193.31,53.07c0.25,0.43,0.59,0.77,1.01,1.02c0.43,0.25,0.89,0.38,1.39,0.38
						c0.5,0,0.96-0.13,1.38-0.38c0.43-0.25,0.76-0.59,1.01-1.02s0.38-0.91,0.38-1.45c0-0.53-0.13-1.01-0.38-1.45
						c-0.25-0.44-0.59-0.78-1.01-1.03c-0.43-0.25-0.89-0.38-1.38-0.38c-0.5,0-0.96,0.13-1.39,0.38c-0.43,0.25-0.76,0.59-1.01,1.03
						c-0.25,0.44-0.38,0.92-0.38,1.45C192.94,52.15,193.06,52.64,193.31,53.07z"/>
					<path class="st5" d="M205.43,55.97c-0.58-0.23-1.11-0.55-1.6-0.97c-0.08-0.07-0.12-0.14-0.12-0.22c0-0.06,0.03-0.13,0.08-0.2
						l0.62-0.8c0.07-0.08,0.14-0.13,0.22-0.13c0.05,0,0.12,0.03,0.2,0.08c0.34,0.25,0.73,0.45,1.16,0.6
						c0.43,0.16,0.85,0.24,1.26,0.24c0.39,0,0.71-0.09,0.95-0.28s0.37-0.43,0.37-0.74c0-0.21-0.06-0.38-0.19-0.52
						c-0.12-0.14-0.32-0.27-0.57-0.39s-0.62-0.25-1.08-0.39c-0.77-0.24-1.4-0.57-1.88-1c-0.49-0.43-0.73-1.01-0.73-1.74
						c0-0.46,0.12-0.88,0.35-1.28c0.23-0.4,0.58-0.72,1.05-0.96c0.47-0.24,1.04-0.36,1.72-0.36c0.48,0,0.97,0.09,1.48,0.27
						c0.51,0.18,0.95,0.45,1.32,0.79c0.07,0.07,0.1,0.14,0.1,0.21c0,0.08-0.03,0.15-0.1,0.21l-0.8,0.83
						c-0.07,0.07-0.14,0.11-0.22,0.11c-0.06,0-0.12-0.03-0.2-0.08c-0.23-0.17-0.48-0.31-0.78-0.42c-0.29-0.11-0.59-0.16-0.88-0.16
						c-0.39,0-0.68,0.09-0.89,0.26c-0.21,0.17-0.31,0.39-0.31,0.65c0,0.18,0.06,0.33,0.17,0.46c0.11,0.13,0.3,0.26,0.55,0.38
						c0.25,0.12,0.6,0.25,1.04,0.38c0.56,0.18,1.04,0.37,1.43,0.6c0.39,0.22,0.7,0.51,0.93,0.86c0.23,0.35,0.35,0.78,0.35,1.29
						c0,0.49-0.12,0.94-0.38,1.37c-0.25,0.43-0.61,0.77-1.08,1.02c-0.47,0.26-1.02,0.39-1.66,0.39
						C206.64,56.32,206.01,56.2,205.43,55.97z"/>
				</g>
				<g>
					<path class="st5" d="M130.43,45.9v11.26c0,0.69,0.56,1.25,1.25,1.25c0.69,0,1.25-0.56,1.25-1.25V45.9
						c0-0.69-0.56-1.25-1.25-1.25C130.99,44.65,130.43,45.21,130.43,45.9z"/>
				</g>
				<g>
					<path class="st5" d="M220.29,45.9v11.26c0,0.69,0.56,1.25,1.25,1.25c0.69,0,1.25-0.56,1.25-1.25V45.9
						c0-0.69-0.56-1.25-1.25-1.25C220.85,44.65,220.29,45.21,220.29,45.9z"/>
				</g>
			</g>
		</g>
		<g>
			<g id="XMLID_00000046312784249440023260000001300357576283432602_">
				<g>
					<path class="st5" d="M118.44,15.38c0.44,0.22,0.68,0.68,0.63,1.14c0,0.04-0.15,20.38-8.98,29.27l3.1,7.15
						c0.2,0.46,0.08,1-0.3,1.32c-4.16,3.55-8.93,6.5-12.45,7.33c-7.21,1.7-14.17,0.58-16.63,0.06H51.84c-4.08,0-7.9-2.03-10.19-5.41
						c-0.05,0-0.11,0-0.16-0.01c-2.79-0.52-5.42-1.58-7.81-3.15c-9.78-6.44-12.5-19.63-6.06-29.41c1.86-2.83,3.99-4.99,6.28-6.43
						c0.05-0.04,0.1-0.07,0.15-0.1c0.02-0.01,0.04-0.03,0.06-0.04c1.05-0.63,2.13-1.11,3.23-1.42c0.53-0.15,1.45-0.24,2-0.24
						c3.02,0,5.48,2.46,5.48,5.48c0,2.26-2.12,4.13-3.71,5.35c-1.2,0.91-2.14,1.89-2.86,3c-2.53,3.85-2.5,8.73-0.14,12.49
						c1.19-10.84,10.4-19.3,21.55-19.3c3.15,0,6.27,0.69,9.11,2c0.6-7.88,3.57-16.27,3.63-16.36c0.2-0.38,0.6-0.63,1.03-0.61
						c0.57,0,0.57,0,3.03,2.67c1.16,1.26,2.97,3.26,5.02,5.65c3.33,3.89,7.64,9.25,9.71,13.16l3.1,0.55
						c3.28-2.97,9.16-6.53,13.62-9.05c2.74-1.55,5.13-2.81,6.65-3.59C115.87,16.21,117.99,15.16,118.44,15.38z M116.51,21.84
						l-9.08,18.29l1.61,3.43C114.25,37.76,115.95,27.91,116.51,21.84z M110.75,53.07l-0.95-2.16L98.3,42.24l-3.89,1.97
						c-0.31,0.16-0.67,0.16-0.98,0.02c-0.32-0.14-0.55-0.42-0.63-0.75l-1.12-4.24l-2.08,2.39c-0.27,0.31-0.68,0.45-1.08,0.37
						c-0.4-0.08-0.73-0.37-0.86-0.75L86.22,37l-17.64,7.5l-1,1.04c5.37,11.73,15.48,13.67,16.44,13.83c0.05,0,0.1,0.01,0.15,0.02
						c4.66,1.01,9.86,1.47,15.62,0C103.67,58.42,107.09,56.1,110.75,53.07z M52.64,59.37h24.75c-4-2.12-9-6.13-12.21-13.63
						c-0.18-0.42-0.09-0.9,0.23-1.23l1.68-1.76c0,0,3.69-3.86,3.69-3.86c-1.68-3.62-2.21-7.82-2.12-11.94
						c-1.93-1.01-4.03-1.68-6.19-1.99c0.82,2.85,1.48,7.68-1.92,10.84c-2.66,2.47-6.48,2.62-9.55,2.73
						c-1.86,0.07-3.96,0.16-4.17,0.87c-0.76,2.68-3.44,11.09-4.32,13.84c0.04,0.08,0.08,0.16,0.12,0.24
						C44.63,57.13,48.48,59.37,52.64,59.37z M75.17,34.55l-2.27-20.3c-1.55,5.93-3.28,15.73-0.37,22.93L75.17,34.55z M41.45,22.95
						c0.87-0.93,1.09-1.58,1.09-2.01c0-1.76-1.43-3.2-3.2-3.2c-0.4,0-1.11,0.08-1.38,0.16c-0.42,0.12-0.82,0.26-1.21,0.43
						c-0.58,0.25-0.95,0.83-0.92,1.46l0.04,0.76c0.02,0.41,0.47,0.66,0.83,0.46l1.41-0.77c0.28-0.16,0.62-0.18,0.92-0.08
						c0.31,0.11,0.55,0.33,0.68,0.63l0.85,2C40.72,23.15,41.19,23.23,41.45,22.95z"/>
					<path class="st5" d="M103.56,50.35c0.62,0.11,1.04,0.7,0.93,1.32c-0.1,0.55-0.58,0.95-1.12,0.95c-0.06,0-0.13-0.01-0.2-0.02
						l-10.24-1.8c-0.62-0.11-1.03-0.7-0.92-1.32c0.11-0.62,0.7-1.04,1.32-0.93L103.56,50.35z"/>
					<path class="st5" d="M85.57,47.18c0.62,0.11,1.04,0.7,0.93,1.32c-0.1,0.56-0.58,0.95-1.12,0.95c-0.07,0-0.13,0-0.2-0.02
						l-10.24-1.8c-0.62-0.11-1.04-0.7-0.93-1.32s0.7-1.03,1.32-0.92L85.57,47.18z"/>
				</g>
			</g>
		</g>
	</g>
</g>
</svg>
